<svg xmlns="http://www.w3.org/2000/svg" viewBox="0 0 1886 803.62"><defs><style>.cls-1{isolation:isolate;}.cls-10,.cls-2,.cls-9{fill:none;stroke-miterlimit:10;}.cls-2{stroke:#ddd;stroke-width:2px;}.cls-3{fill:#f4f2ed;}.cls-4,.cls-8{fill:#230753;}.cls-4,.cls-7{opacity:0.1;mix-blend-mode:multiply;}.cls-5{fill:#ddd;}.cls-6{fill:#ff0e00;}.cls-9{stroke:#ff0e00;}.cls-10{stroke:#72727c;}.cls-11{fill:#72727c;}.cls-12{fill:#00b8e2;}.cls-13{fill:#040028;}.cls-14{fill:#fff;}.cls-15{fill:#cfcfcf;}.cls-16{fill:#00add4;}.cls-17{fill:#b5052f;}.cls-18{fill:#ce0636;}</style></defs><title>astronaught</title><g class="cls-1"><g id="Layer_1" data-name="Layer 1"><path class="cls-2" d="M267.1,656S535.24,379.13,746.7,554.41s341.6,440,677.48,364,415.65-436.91,340.39-581.78" transform="translate(-13 -129.13)"/><path class="cls-3" d="M1822.74,301.32l-121.1-75.17a22.45,22.45,0,0,0-30.92,7.24l-21.22,34.18a22.47,22.47,0,0,0,7.24,30.93l121.1,75.17Z" transform="translate(-13 -129.13)"/><path class="cls-4" d="M1664.07,244.88a22.44,22.44,0,0,1,30.92-7.23l120.75,75,7-11.28-121.1-75.17a22.45,22.45,0,0,0-30.92,7.24l-21.22,34.18a23.06,23.06,0,0,0-1.82,3.7Z" transform="translate(-13 -129.13)"/><polygon class="cls-5" points="1786.68 209.35 1786.68 209.35 1764.84 244.53 1807.82 252.65 1821.33 230.86 1821.34 230.86 1834.86 209.08 1809.74 172.18 1786.68 209.35"/><polygon class="cls-6" points="1845.97 216.06 1818.96 259.56 1807.82 252.65 1834.82 209.14 1845.97 216.06"/><polygon class="cls-5" points="1876.57 222.32 1845.98 216.04 1833.13 236.74 1832.48 237.78 1818.96 259.56 1838.18 284.17 1857.36 253.26 1856.72 252.82 1857.38 253.24 1876.57 222.32"/><g class="cls-7"><polygon class="cls-8" points="1779.73 220.6 1779.73 220.6 1802.81 183.44 1827.71 220.02 1839.03 227.31 1839.04 227.29 1869.58 233.57 1876.57 222.32 1845.98 216.04 1845.97 216.06 1834.64 208.77 1809.74 172.18 1786.68 209.35 1786.68 209.35 1764.84 244.53 1764.88 244.53 1779.73 220.6"/><polygon class="cls-8" points="1849.78 264.07 1850.38 264.49 1850.4 264.47 1849.78 264.07"/></g><path class="cls-6" d="M1721.07,228.63a5.71,5.71,0,0,1,1.84,7.85l-47.64,76.75a5.69,5.69,0,0,1-7.84,1.83h0a5.69,5.69,0,0,1-1.83-7.84l47.64-76.75a5.69,5.69,0,0,1,7.83-1.84Z" transform="translate(-13 -129.13)"/><path class="cls-4" d="M1721.07,228.63a5.65,5.65,0,0,0-5.79,0,5.41,5.41,0,0,1,3.35,8.4L1671,313.75a5.48,5.48,0,0,1-2,1.88,5.63,5.63,0,0,0,6.32-2.4l47.64-76.75A5.71,5.71,0,0,0,1721.07,228.63Z" transform="translate(-13 -129.13)"/><path class="cls-9" d="M1753.53,381a2,2,0,0,1,.87,2.64l-59.86,96.44a2,2,0,0,1-2.74.39l-75.39-46.8a2,2,0,0,1-.88-2.63l59.87-96.43a2,2,0,0,1,2.75-.39Z" transform="translate(-13 -129.13)"/><line class="cls-9" x1="1615.77" y1="312.25" x2="1677.51" y2="212.79"/><line class="cls-9" x1="1631.45" y1="321.98" x2="1693.18" y2="222.52"/><line class="cls-9" x1="1647.11" y1="331.71" x2="1708.85" y2="232.24"/><line class="cls-9" x1="1662.79" y1="341.44" x2="1724.52" y2="241.97"/><line class="cls-9" x1="1612.09" y1="286.55" x2="1691.1" y2="335.59"/><line class="cls-9" x1="1622.36" y1="270.01" x2="1701.37" y2="319.05"/><line class="cls-9" x1="1632.63" y1="253.45" x2="1711.65" y2="302.49"/><line class="cls-9" x1="1642.91" y1="236.9" x2="1721.92" y2="285.94"/><line class="cls-9" x1="1653.18" y1="220.35" x2="1732.19" y2="269.38"/><line class="cls-9" x1="1699.29" y1="226.31" x2="1709.35" y2="210.09"/><path class="cls-9" d="M1818.57,276.26a2,2,0,0,0,2.75-.39l59.86-96.44a2,2,0,0,0-.88-2.63L1804.92,130a2,2,0,0,0-2.75.39l-59.85,96.44a2,2,0,0,0,.86,2.64Z" transform="translate(-13 -129.13)"/><line class="cls-9" x1="1804.28" y1="8.55" x2="1742.55" y2="108.01"/><line class="cls-9" x1="1819.95" y1="18.27" x2="1758.22" y2="117.74"/><line class="cls-9" x1="1835.63" y1="28" x2="1773.89" y2="127.46"/><line class="cls-9" x1="1851.29" y1="37.73" x2="1789.56" y2="137.19"/><line class="cls-9" x1="1779.62" y1="16.64" x2="1858.63" y2="65.69"/><line class="cls-9" x1="1769.35" y1="33.2" x2="1848.35" y2="82.24"/><line class="cls-9" x1="1759.07" y1="49.75" x2="1838.08" y2="98.79"/><line class="cls-9" x1="1748.79" y1="66.3" x2="1827.81" y2="115.34"/><line class="cls-9" x1="1738.53" y1="82.85" x2="1817.53" y2="131.89"/><line class="cls-9" x1="1764.33" y1="121.52" x2="1754.26" y2="137.74"/><line class="cls-10" x1="1857.38" y1="253.24" x2="1880.89" y2="267.82"/><path class="cls-6" d="M1895.59,389.39a7.23,7.23,0,1,1-9.95,2.33A7.23,7.23,0,0,1,1895.59,389.39Z" transform="translate(-13 -129.13)"/><path class="cls-4" d="M1895.59,389.39a7.2,7.2,0,0,0-5.73-.8,6.31,6.31,0,0,1,1.2.58,7.2,7.2,0,0,1-1.89,13.08,7.22,7.22,0,0,0,6.42-12.86Z" transform="translate(-13 -129.13)"/><path class="cls-11" d="M1737.3,331.86a2.43,2.43,0,0,1,.8,3.36h0a2.46,2.46,0,0,1-3.37.78l-41.36-25.68a2.44,2.44,0,0,1-.79-3.36h0a2.43,2.43,0,0,1,3.36-.78Z" transform="translate(-13 -129.13)"/><path class="cls-12" d="M124.44,562.77s-46.88-5-42.16-58.38L62.93,486.78s-20.29,40.39,10.6,76.45,64,22.41,64,22.41Z" transform="translate(-13 -129.13)"/><path class="cls-4" d="M62.93,486.78l3.4,3.09c-4.06,14-7.76,41.64,14,67.11,20.92,24.41,42.79,26,54.76,24.52l2.36,4.14s-33.06,13.65-64-22.41S62.93,486.78,62.93,486.78Z" transform="translate(-13 -129.13)"/><path class="cls-5" d="M239,722.18a58.52,58.52,0,0,0,82.47,7.19l52.34-43.93A58.52,58.52,0,0,0,381,603L272.63,474a58.49,58.49,0,0,0-82.44-7.21L137.84,510.7a58.53,58.53,0,0,0-7.2,82.47Z" transform="translate(-13 -129.13)"/><path class="cls-4" d="M122.52,530.7a58.39,58.39,0,0,0,12.79,47.89l108.3,129a58.54,58.54,0,0,0,82.48,7.19l52.33-43.92a58.56,58.56,0,0,0,15.33-20,58.33,58.33,0,0,1-20,34.58l-52.34,43.93A58.52,58.52,0,0,1,239,722.18l-108.31-129A58.5,58.5,0,0,1,122.52,530.7Z" transform="translate(-13 -129.13)"/><path class="cls-5" d="M15.65,357.49C9.39,433.3,72.14,500.36,155.75,507.27s156.49-49,162.73-124.8S262,239.58,178.4,232.69,21.91,281.66,15.65,357.49Z" transform="translate(-13 -129.13)"/><path class="cls-13" d="M42.84,377.67C37,448.52,91.65,510.88,164.93,516.91s137.43-46.5,143.27-117.35S259.37,266.35,186.1,260.32,48.68,306.81,42.84,377.67Z" transform="translate(-13 -129.13)"/><path class="cls-14" d="M288.55,457.24c-26.35,49.57-82.24,85.65-165.08,67.26C44.67,507,7.05,448.43,13.76,367a152.54,152.54,0,0,1,21.65-66.86s-28.82,158.44,96,187.6C245,514.34,288.55,457.24,288.55,457.24Z" transform="translate(-13 -129.13)"/><path class="cls-5" d="M70,501.89l8.52-11.46c5-7-1.46-20.28-14.5-29.71s-27.7-11.39-32.75-4.41L23.39,467Z" transform="translate(-13 -129.13)"/><path class="cls-14" d="M23.39,467c-5,7,1.45,20.29,14.5,29.71s27.72,11.4,32.76,4.4-1.44-20.28-14.51-29.7S28.44,460.05,23.39,467Z" transform="translate(-13 -129.13)"/><path class="cls-14" d="M248.4,303.35S233,284.16,197.66,277.57c0,0-27.69-5.74-28.57,4,0,0-2.59,11,20.11,9.38C189.2,291,224.42,287.87,248.4,303.35Z" transform="translate(-13 -129.13)"/><path class="cls-14" d="M475.26,375.2c-16.06,8.46-22.09,28.53-13.5,44.84l7.88,14.9a33.09,33.09,0,0,0,44.62,14.17h0c16-8.44,22.07-28.54,13.47-44.85l-7.86-14.89c-8.59-16.3-28.58-22.65-44.61-14.17Z" transform="translate(-13 -129.13)"/><path class="cls-14" d="M517.46,400.14a10.89,10.89,0,0,0-6,14.21h0a10.9,10.9,0,0,0,14.2,6L556,408.09a10.89,10.89,0,0,0,6-14.21h0a10.91,10.91,0,0,0-14.21-6Z" transform="translate(-13 -129.13)"/><path class="cls-14" d="M511,379.94c-5.55,3.6-7.38,10.64-4.09,15.71h0c3.3,5,10.45,6.17,16,2.59l30.16-19.63c5.56-3.61,7.38-10.63,4.1-15.7h0c-3.3-5.06-10.46-6.22-16-2.59Z" transform="translate(-13 -129.13)"/><path class="cls-14" d="M489.67,372.8c-4,5.29-3.29,12.53,1.53,16.14h0c4.82,3.62,11.95,2.28,15.92-3l21.64-28.75c4-5.3,3.32-12.52-1.49-16.15h0c-4.84-3.63-12-2.28-15.95,3Z" transform="translate(-13 -129.13)"/><path class="cls-14" d="M467.51,390.2a10.69,10.69,0,0,0,9.61,11.67h0a10.69,10.69,0,0,0,12.08-9.05L493,361.71A10.68,10.68,0,0,0,483.37,350h0a10.69,10.69,0,0,0-12.1,9.05Z" transform="translate(-13 -129.13)"/><path class="cls-14" d="M511.88,416.66A10.72,10.72,0,0,0,501,427.14h0a10.69,10.69,0,0,0,9.95,11.35l31.29,1.36a10.65,10.65,0,0,0,10.91-10.42h0a10.68,10.68,0,0,0-9.93-11.37Z" transform="translate(-13 -129.13)"/><g class="cls-7"><path class="cls-8" d="M512.25,379.1,526,353.52c2.29-4.85,3.29-8.51,1.59-12.24,4.54,3.71,5.15,10.71,1.22,15.9L512.25,379.1Z" transform="translate(-13 -129.13)"/><path class="cls-8" d="M492,369.74l-1.84-11.69c-.21-2.49-.92-6.44-3.76-7.24,10.09,4,5.79,15.6,5.6,18.93Z" transform="translate(-13 -129.13)"/><path class="cls-8" d="M511.45,445.45a32.21,32.21,0,0,0,11.34-10l16.62.72a10.66,10.66,0,0,0,10.92-10.42,11.17,11.17,0,0,0-1.13-5.32,11,11,0,0,1,3.92,9,10.65,10.65,0,0,1-10.91,10.42l-16.62-.73a32,32,0,0,1-11.33,10,33,33,0,0,1-43-11.4A32.94,32.94,0,0,0,511.45,445.45Z" transform="translate(-13 -129.13)"/><path class="cls-8" d="M524.13,397.43h0l26.11-22.49c4.89-5,7-9.38,4.82-14.28a10.46,10.46,0,0,1,2.09,2.25c3.28,5.07,1.46,12.09-4.1,15.7Z" transform="translate(-13 -129.13)"/><path class="cls-8" d="M540.41,414.41s-7.85,3.18-7.87,3.18h0l20.65-13.16c5.33-3.56,8.29-8.62,6-14.22-.09-.18-.2-.34-.28-.52a10.6,10.6,0,0,1,3.08,4.19,10.89,10.89,0,0,1-6,14.21Z" transform="translate(-13 -129.13)"/></g><path class="cls-14" d="M470.87,460.54s-87.51,62.2-118.52,35.83l3.6-75.31s37.94,8.41,85.46-17.59c0,0-2.72,4.08,16.09,36.34Z" transform="translate(-13 -129.13)"/><path class="cls-4" d="M463.61,449.27l7.26,11.27s-87.51,62.2-118.52,35.83l.49-9.93C383.5,501.67,449.5,458.84,463.61,449.27Z" transform="translate(-13 -129.13)"/><path class="cls-14" d="M440.81,403.77c.22-.12.4-.19.6-.3a2.78,2.78,0,0,0-.11,1.38C441.14,404.48,441,404.11,440.81,403.77Z" transform="translate(-13 -129.13)"/><path class="cls-12" d="M446.58,396.33c-5.6,3.12-7.22,10.89-3.6,17.38l23.22,41.75c3.61,6.48,11.07,9.19,16.67,6.1h0c5.62-3.12,7.23-10.91,3.63-17.39L463.25,402.4c-3.6-6.46-11.05-9.17-16.67-6.07Z" transform="translate(-13 -129.13)"/><path class="cls-4" d="M476.14,461.93c5.61-3.12,7.22-10.91,3.61-17.39l-23.23-41.76a14.26,14.26,0,0,0-8.77-6.93c5.45-2.17,12.14.53,15.5,6.55l23.25,41.77c3.6,6.48,2,14.27-3.63,17.39a10.71,10.71,0,0,1-7.89.85A11.38,11.38,0,0,0,476.14,461.93Z" transform="translate(-13 -129.13)"/><path class="cls-14" d="M316.46,407.2s-10.55-5.48-27.84.78-80.69,29.55-80.69,29.55-19.75,6.37-31.38,28.79-34.93,61.41-34.93,61.41S134.84,539,144.43,551s93.82,105.76,93.82,105.76,15.23,12.72,13.79,26.48,11.31,13,11.31,13,9.5-1.93,10.31,10.2,45.07,71.51,75,38S469.52,617.46,469.52,617.46s17.25-17.13-2.87-36.43-24.15-5.17-25.86-28.38c0,0-.32-12.54-9.4-14.18s-5.23-7.68-5.23-7.68,5.69-7.08,0-13.42,5.49-19-17.42-20.88Z" transform="translate(-13 -129.13)"/><g class="cls-7"><path class="cls-8" d="M426.16,530.79a5.46,5.46,0,0,0-.42.87c-2.05-6.71,4.14-16.71-16-18.35L317.4,424s-10.55-5.47-27.83.79-80.7,29.54-80.7,29.54-19.75,6.37-31.37,28.78-34.93,61.43-34.93,61.43a14.43,14.43,0,0,0-1,2.09,20.45,20.45,0,0,1,0-18.91s23.33-39,34.93-61.41,31.38-28.79,31.38-28.79,63.45-23.27,80.69-29.55,27.84-.78,27.84-.78l92.32,89.29c22.91,1.87,11.76,14.54,17.42,20.88S426.16,530.79,426.16,530.79Z" transform="translate(-13 -129.13)"/><path class="cls-8" d="M467.6,597.85c-20.13-19.3-24.15-5.17-25.87-28.38,0,0-.32-12.54-9.4-14.18s-5.23-7.68-5.23-7.68,3.61-4.63,2.08-9.73a14.82,14.82,0,0,0,2.21.59c9.08,1.64,9.4,14.18,9.4,14.18,1.71,23.21,5.73,9.08,25.86,28.38,10.87,10.42,10.82,20.19,8.49,27A34,34,0,0,0,467.6,597.85Z" transform="translate(-13 -129.13)"/></g><path class="cls-15" d="M265.44,448.66l-5.9,31a15.93,15.93,0,0,0,3,11.86l55.86,80.81c5.05,6.78,12.45,6.64,20.4,3.89l74.77-31.44A13.66,13.66,0,0,0,419,533.09l2.69-21" transform="translate(-13 -129.13)"/><path class="cls-15" d="M271.46,563c-4.59,4.54-3.17,13.41,3.15,19.82s15.18,7.92,19.79,3.39,3.15-13.41-3.16-19.81S276.05,558.51,271.46,563Z" transform="translate(-13 -129.13)"/><path class="cls-15" d="M239.12,508.75c-3.85,3.78-2.64,11.19,2.61,16.52s12.68,6.62,16.5,2.84,2.64-11.18-2.63-16.51S243,505,239.12,508.75Z" transform="translate(-13 -129.13)"/><path class="cls-4" d="M290.1,570c-6.33-6.41-15.18-7.93-19.78-3.41a9.21,9.21,0,0,0-1.37,1.8,9.15,9.15,0,0,1,2.51-5.32c4.59-4.52,13.45-3,19.78,3.4,5.57,5.65,7.32,13.21,4.51,18C296.41,579.93,294.45,574.36,290.1,570Z" transform="translate(-13 -129.13)"/><path class="cls-4" d="M254.46,515.12c-5.28-5.34-12.65-6.61-16.48-2.84a6.62,6.62,0,0,0-1,1.32,7.67,7.67,0,0,1,2.15-4.85c3.83-3.76,11.2-2.49,16.48,2.85,4.71,4.77,6.13,11.18,3.64,15.18C259.61,523.09,258,518.66,254.46,515.12Z" transform="translate(-13 -129.13)"/><path class="cls-5" d="M328.91,543.86c4.54,6.08,11.26,6.15,17.77,3.93l70.38-27.86c5.26-3.92,5.85-12,1.3-18.12l-61.29-82.4c-4.53-6.08-10.82-7.22-17.73-3.93L269,443.34c-5.29,3.92-5.88,12-1.35,18.12Z" transform="translate(-13 -129.13)"/><path class="cls-5" d="M280.78,566.79a7.7,7.7,0,0,0,.52,10.9h0a7.68,7.68,0,0,0,10.88,0l23-24a7.72,7.72,0,0,0-.51-10.91h0a7.71,7.71,0,0,0-10.91,0Z" transform="translate(-13 -129.13)"/><path class="cls-4" d="M280.78,566.79l23-24a7.71,7.71,0,0,1,10.91,0,8,8,0,0,1,1.82,2.57,7.64,7.64,0,0,0-10.1.63l-23,24a7.5,7.5,0,0,0-1.31,8.31,7.61,7.61,0,0,1-.8-.63A7.7,7.7,0,0,1,280.78,566.79Z" transform="translate(-13 -129.13)"/><path class="cls-13" d="M308.11,482.64c2.41,3.31,7.44,3.78,11.21,1L362.38,466c3.78-2.75,4.86-7.67,2.44-11l-16.67-22.85c-2.43-3.32-5.78-3.49-11.23-1l-43,17.68c-3.78,2.76-4.87,7.67-2.44,11Z" transform="translate(-13 -129.13)"/><path class="cls-14" d="M411.75,699.75s5.17-7.74-12-25.76-59.91-85.48-140-3.1l110.35,92.05s12.48,5.83,19.56-3.22S411.75,699.75,411.75,699.75Z" transform="translate(-13 -129.13)"/><path class="cls-12" d="M368.94,681.74l-26.4-19.29c-7.78-5.67-9.05-17.17-2.84-25.67a20.63,20.63,0,0,1,4.77-4.62c25.5,5.5,42.47,27.46,52.59,38.92a21,21,0,0,1-2.8,5.52C388.05,685.1,376.71,687.41,368.94,681.74Z" transform="translate(-13 -129.13)"/><path class="cls-4" d="M405.56,713.58s5.16-7.74-12-25.76c-16.44-17.2-60.54-83.06-133.83-16.93h0c80.1-82.38,122.8-14.91,140,3.1s12,25.76,12,25.76,1.27,1.17-6.19,13.83Z" transform="translate(-13 -129.13)"/><path class="cls-12" d="M499.56,799s-16.67,12-55-16.72c0,0-28.22-21.12-53.88-18.57,0,0-11.32,3.52-11.14-9.59s28.57-58.27,28.57-58.27,1.93-5.26,13.17-.57,29.07,10.93,48,31.51c0,0,4.35-6.79,18.82-36.82s32.61-6.26,32.61-6.26Z" transform="translate(-13 -129.13)"/><path class="cls-12" d="M499.56,799s-16.67,12-55-16.72c0,0-28.22-21.12-53.88-18.57,0,0-11.32,3.52-11.14-9.59s28.57-58.27,28.57-58.27,1.93-5.26,13.17-.57,29.07,10.93,48,31.51c0,0,4.35-6.79,18.82-36.82s32.61-6.26,32.61-6.26Z" transform="translate(-13 -129.13)"/><g class="cls-7"><path class="cls-8" d="M513.54,693.45s-12.17-15.92-24.53-5.2c14.32-27.3,31.72-4.52,31.72-4.52L499.56,799a15.9,15.9,0,0,1-5.78,2Z" transform="translate(-13 -129.13)"/><path class="cls-8" d="M462.1,736.53c-19-20.57-36.81-26.82-48.05-31.51-5.47-2.28-8.71-2.2-10.61-1.52,2.78-4.64,4.65-7.63,4.65-7.63s1.93-5.26,13.17-.57c11,4.59,28.32,10.7,46.84,30.24C463.7,734,462.1,736.53,462.1,736.53Z" transform="translate(-13 -129.13)"/></g><path class="cls-5" d="M486.05,770c-2.32,14.69,2.57,27.68,11,29h0c8.36,1.32,17-9.5,19.38-24.2l10.31-64.56c2.31-14.7-2.59-27.68-11-29h0c-8.38-1.34-17.05,9.49-19.39,24.19Z" transform="translate(-13 -129.13)"/><path class="cls-4" d="M521.74,690c-8.36-1.35-17,9.47-19.38,24.17l-10.31,64.57a39.68,39.68,0,0,0,1.22,18.65c-6-4.08-9.16-15.09-7.22-27.4l10.31-64.57c2.34-14.7,11-25.53,19.39-24.19,4.4.7,7.8,4.68,9.74,10.38A9.25,9.25,0,0,0,521.74,690Z" transform="translate(-13 -129.13)"/><path class="cls-14" d="M209.92,724c1.36-18.44-12.74-34.55-31.48-35.91l-17.14-1.27c-18.75-1.36-35.05,12.47-36.41,30.93h0c-1.36,18.46,12.75,34.55,31.5,35.92L173.51,755A33.76,33.76,0,0,0,209.92,724Z" transform="translate(-13 -129.13)"/><path class="cls-14" d="M165.53,747a11.14,11.14,0,0,0-9.05-12.89h0a11.12,11.12,0,0,0-12.89,9l-5.78,32.89a11.1,11.1,0,0,0,9,12.91h0a11.16,11.16,0,0,0,12.91-9Z" transform="translate(-13 -129.13)"/><path class="cls-14" d="M186.48,752.35c-.1-6.74-5.21-12.12-11.36-12h0c-6.14.11-11,5.67-10.9,12.42l.68,36.69c.1,6.77,5.19,12.14,11.34,12h0c6.16-.12,11-5.67,10.92-12.42Z" transform="translate(-13 -129.13)"/><path class="cls-14" d="M204.18,737.81c-2.44-6.31-9.05-9.62-14.79-7.41h0c-5.75,2.19-8.42,9.09-6,15.38l13.15,34.28c2.42,6.32,9,9.61,14.78,7.43h0c5.75-2.22,8.43-9.11,6-15.41Z" transform="translate(-13 -129.13)"/><path class="cls-14" d="M201.14,709.23a10.93,10.93,0,0,0-15.3,2h0a10.94,10.94,0,0,0,1.29,15.36l24.86,20a10.88,10.88,0,0,0,15.28-2h0A10.91,10.91,0,0,0,226,729.31Z" transform="translate(-13 -129.13)"/><path class="cls-14" d="M154.22,733.28a10.88,10.88,0,0,0-3.13-15.08h0a10.9,10.9,0,0,0-15.21,2.45L117.77,747a10.93,10.93,0,0,0,3.14,15.09h0a10.9,10.9,0,0,0,15.21-2.48Z" transform="translate(-13 -129.13)"/><g class="cls-7"><path class="cls-8" d="M219.8,742.18a10.91,10.91,0,0,0-1.27-15.36L202,713.49a33.73,33.73,0,0,0-19-24.64A33.82,33.82,0,0,1,209.49,716L226,729.31a11.14,11.14,0,0,1-14,17.31l-.32-.26A11.27,11.27,0,0,0,219.8,742.18Z" transform="translate(-13 -129.13)"/><path class="cls-8" d="M203.86,785c5.75-2.21,7.06-5.73,6-15.4l-4.28-28.15h0c.82.67-.94-.37,0,0l11.74,30.64c2.44,6.3-.24,13.19-6,15.41a11,11,0,0,1-10.73-1.89A10,10,0,0,0,203.86,785Z" transform="translate(-13 -129.13)"/><path class="cls-8" d="M153.33,779.69l10.93-24.87-4.73,26c-2.34,7.3-8.57,8.86-12.7,8.13a10.88,10.88,0,0,1-5-2.34A13.41,13.41,0,0,0,153.33,779.69Z" transform="translate(-13 -129.13)"/><path class="cls-8" d="M132.55,758.06l9.73-7.42-6.76,9.73c-4.47,5.17-11.08,4.11-14.61,1.69-.22-.16-.4-.35-.6-.51C123.58,761.43,126.46,762.52,132.55,758.06Z" transform="translate(-13 -129.13)"/><path class="cls-8" d="M179.69,786.58l6.82-32.67h0l.65,35.16c.1,6.75-4.76,12.3-10.92,12.42a10.49,10.49,0,0,1-6.94-2.56C175.2,798.51,177.59,796.26,179.69,786.58Z" transform="translate(-13 -129.13)"/></g><path class="cls-14" d="M192.07,674.48l-53.71,3.67s-14.14-17.93-10.89-89L131,552a39.88,39.88,0,0,1,43.48-35.93h0a39.91,39.91,0,0,1,36,43.48S212,607.74,192.07,674.48Z" transform="translate(-13 -129.13)"/><path class="cls-4" d="M192.6,563a39.91,39.91,0,0,0-35.95-43.49c-.71-.07-1.43-.06-2.14-.09a39.87,39.87,0,0,1,55.92,40.2s1.53,48.17-18.36,114.91l-17.19,1.18C194.09,610.07,192.6,563,192.6,563Z" transform="translate(-13 -129.13)"/><path class="cls-12" d="M129.22,570.7a20.09,20.09,0,0,1,11.89-3.91c10.52,0,19.08,7.75,19.11,17.38l.07,32.68c0,9.63-8.5,17.45-19,17.46a19.84,19.84,0,0,1-13.69-5.26,378.21,378.21,0,0,1-.1-39.9Z" transform="translate(-13 -129.13)"/><path class="cls-12" d="M127,690.67c.53,6.38,7,11.07,14.33,10.47L189,697.21c7.39-.6,12.95-6.28,12.43-12.66h0c-.53-6.4-6.94-11.08-14.33-10.49L139.42,678c-7.38.6-12.94,6.27-12.41,12.68Z" transform="translate(-13 -129.13)"/><path class="cls-4" d="M197.3,689.68c-.52-6.39-6.93-11.08-14.32-10.48l-47.63,3.93a14.76,14.76,0,0,0-7.61,2.83c1.73-4.26,6.19-7.52,11.68-8l47.64-3.93c7.39-.59,13.8,4.09,14.33,10.49a11.17,11.17,0,0,1-4.82,9.81A10,10,0,0,0,197.3,689.68Z" transform="translate(-13 -129.13)"/><path class="cls-14" d="M569.81,590s-70.1-72.73-149.53-26.22c-28.64,16.76-39.38,27.41-39.38,27.41l36.35,67.37S488.72,640.62,538,658c0,0,11.24,3,16.33-4.07Z" transform="translate(-13 -129.13)"/><path class="cls-12" d="M532,582.48l-30.8-11c-8.58-3-13-12.75-10.45-22.18,25.76,3.65,47.32,15.84,61.41,25.92C547.46,581.9,539.37,585.11,532,582.48Z" transform="translate(-13 -129.13)"/><path class="cls-4" d="M424.52,571.43c-21.57,9.94-37.8,15.08-43.62,19.76h0s10.74-10.65,39.38-27.41C499.71,517.27,569.81,590,569.81,590l-2.88,11.85C554.21,590,494.26,539.26,424.52,571.43Z" transform="translate(-13 -129.13)"/><path class="cls-12" d="M663.79,687.73s-16.68,12-55-16.7c0,0-22.9-12.58-48.59-10,0,0-11.06.58-10.87-12.52s16.5-59.42,16.5-59.42,1.94-5.27,13.2-.56,35.53,6.46,54.5,27c0,0,4.36-6.79,18.83-36.81S685,572.45,685,572.45Z" transform="translate(-13 -129.13)"/><path class="cls-4" d="M681.43,580.94s-18.15-23.76-32.63,6.26-15.37,34.49-15.37,34.49c-19-20.57-46.74-20-58-24.7-7.32-3.06-10.66-1.9-12.12-.73,1.49-4.4,2.47-7.2,2.47-7.2s1.94-5.27,13.2-.56,35.53,6.46,54.5,27c0,0,4.36-6.79,18.83-36.81S685,572.45,685,572.45L663.79,687.73a11,11,0,0,1-2.18,1Z" transform="translate(-13 -129.13)"/><path class="cls-5" d="M650.26,658.71c-2.32,14.69,2.58,27.67,10.92,29h0c8.41,1.34,17.1-9.5,19.42-24.21L690.89,599c2.35-14.72-2.56-27.7-10.92-29h0c-8.38-1.34-17.05,9.49-19.4,24.17Z" transform="translate(-13 -129.13)"/><path class="cls-4" d="M685.2,579.46c-8.39-1.34-17.05,9.49-19.41,24.18L655.48,668.2a41.16,41.16,0,0,0,.72,16.94c-5.14-4.69-7.74-15-5.94-26.43l10.31-64.58c2.35-14.68,11-25.51,19.4-24.17,4.81.76,8.43,5.47,10.22,12.09A9.76,9.76,0,0,0,685.2,579.46Z" transform="translate(-13 -129.13)"/><path class="cls-5" d="M246,511.33a6.47,6.47,0,0,0,.42,9.1h0a6.47,6.47,0,0,0,9.1,0l19.15-20.06a6.41,6.41,0,0,0-.42-9.08h0a6.44,6.44,0,0,0-9.09,0Z" transform="translate(-13 -129.13)"/><path class="cls-4" d="M275.43,495.27a6.42,6.42,0,0,0-9.09,0l-19.16,20a6,6,0,0,0-1.58,4,6.29,6.29,0,0,1,.41-7.91l19.16-20a6.44,6.44,0,0,1,9.09,0,6.64,6.64,0,0,1,2,5.16A6.41,6.41,0,0,0,275.43,495.27Z" transform="translate(-13 -129.13)"/><path class="cls-16" d="M316.61,503.42a10.29,10.29,0,1,0,20.46,2.18l.12-4-20.49-.77Z" transform="translate(-13 -129.13)"/><path class="cls-12" d="M316.7,500.85c-.52,5,3.61,9.5,9.27,10.12s10.67-3,11.19-7.94-3.6-9.51-9.26-10.11S317.24,495.86,316.7,500.85Z" transform="translate(-13 -129.13)"/><path class="cls-17" d="M346.73,529.34a8,8,0,1,0,16,1.72l.1-3.12-16-.61Z" transform="translate(-13 -129.13)"/><path class="cls-18" d="M346.81,527.33c-.42,3.89,2.82,7.43,7.24,7.9s8.32-2.3,8.74-6.19-2.82-7.43-7.25-7.9S347.22,523.44,346.81,527.33Z" transform="translate(-13 -129.13)"/><path class="cls-17" d="M378.61,516.06a8,8,0,1,0,16,1.71l.09-3.1-16-.62Z" transform="translate(-13 -129.13)"/><path class="cls-18" d="M378.68,514.05c-.4,3.89,2.82,7.43,7.25,7.9s8.33-2.3,8.74-6.19-2.82-7.43-7.25-7.9S379.11,510.16,378.68,514.05Z" transform="translate(-13 -129.13)"/><path class="cls-16" d="M365.53,483.68A10.29,10.29,0,1,0,386,485.86l.11-4-20.49-.78Z" transform="translate(-13 -129.13)"/><path class="cls-12" d="M365.62,481.1c-.52,5,3.62,9.5,9.28,10.12s10.66-2.94,11.19-7.94-3.62-9.5-9.28-10.1S366.16,476.12,365.62,481.1Z" transform="translate(-13 -129.13)"/><path class="cls-16" d="M342,493.15a10.29,10.29,0,1,0,20.46,2.18l.13-4-20.49-.77Z" transform="translate(-13 -129.13)"/><path class="cls-12" d="M342.12,490.58c-.53,5,3.62,9.5,9.28,10.11s10.65-2.94,11.18-7.93-3.62-9.5-9.27-10.1S342.66,485.6,342.12,490.58Z" transform="translate(-13 -129.13)"/><path class="cls-14" d="M157.07,287.48a7.68,7.68,0,1,1-7.68-7.68A7.68,7.68,0,0,1,157.07,287.48Z" transform="translate(-13 -129.13)"/></g></g></svg>