<?xml version="1.0" encoding="utf-8"?>
<!-- Generator: Adobe Illustrator 23.0.1, SVG Export Plug-In . SVG Version: 6.00 Build 0)  -->
<svg version="1.1" id="Layer_1" xmlns="http://www.w3.org/2000/svg" xmlns:xlink="http://www.w3.org/1999/xlink" x="0px" y="0px"
	 viewBox="0 0 1920 1920" style="enable-background:new 0 0 1920 1920;" xml:space="preserve">
<style type="text/css">
	.st0{opacity:0.06;fill:#FFFFFF;}
	.st1{fill:url(#SVGID_1_);}
	.st2{opacity:0.15;}
	.st3{fill:#230753;}
	.st4{fill:#DDDDDD;}
	.st5{fill:#FF1200;}
	.st6{fill:#F4F2ED;}
	.st7{fill:#040028;}
	.st8{fill:none;stroke:#F4F2ED;stroke-width:0.3;stroke-linecap:round;stroke-linejoin:round;stroke-miterlimit:10;}
</style>
<path class="st0" d="M179.66,1881.42l310.07-494.72L439.02,1413"/>
<path class="st0" d="M424.57,1396.16l576.44-789.6c56.26-64.88,172.63-57,258.6,17.52l21.71,18.83
	c85.97,74.55,110.28,188.61,54.02,253.51l-431.41,441.8c-7.71,7.89-21.02,1.32-19.43-9.59l6.95-48.02L196.87,1896"/>
<path class="st0" d="M290.28,1760.04l273.32-423.37l-40.49,22.59c-9.04,5.04-18.58-5.8-12.41-14.12l506.08-682.67
	c49.08-56.58,145.18-54.4,213.56,4.9l17.27,14.97c68.38,59.29,84.19,154.11,35.12,210.71l-373.12,386.11
	c-6.62,6.86-18.11,0.93-16.36-8.44l7.16-38.36l-595.6,540.01"/>
<linearGradient id="SVGID_1_" gradientUnits="userSpaceOnUse" x1="1028.6162" y1="1161.809" x2="1705.9106" y2="746.2532" gradientTransform="matrix(-0.9688 0.248 -0.248 -0.9688 2401.592 1686.8047)">
	<stop  offset="0" style="stop-color:#F1C13B"/>
	<stop  offset="1" style="stop-color:#FF1200"/>
</linearGradient>
<path class="st1" d="M710.03,1168.41l322.11-439.86c31.64-36.5,96.38-32.66,143.87,8.52l12,10.41
	c47.49,41.17,60.47,104.71,28.83,141.2l-240.08,246.38c-4.98,5.11-13.58,0.83-12.5-6.23l3.61-23.57L583.69,1447.2
	c-6.33,5.64-15.6-2.2-11.07-9.39l171.1-271.39l-24.35,12.82C712.49,1182.86,705.45,1174.69,710.03,1168.41z"/>
<g class="st2">
	<g>
		<path class="st3" d="M1045.93,751.56c31.64-36.48,96.38-32.64,143.88,8.54l12,10.4c8.29,7.19,15.11,15.19,21.24,23.48
			c-7.79-16.74-19.32-32.87-35.03-46.49l-12-10.41c-47.49-41.18-112.24-45.02-143.87-8.52l-318.69,435.2
			c-5.42,7.41,2.89,17.07,11.03,12.8l16.67-8.78L1045.93,751.56z"/>
		<path class="st3" d="M609.45,1424.27l148.05-234.83l-42.36,22.29l-141.64,224.67c-4.68,7.42,4.89,15.52,11.44,9.7L609.45,1424.27z
			"/>
	</g>
</g>
<g>
	<path class="st4" d="M1227.63,888.23c9.69,7.3,23.46,5.37,30.75-4.32l25.44-33.77c49.7-65.93,36.52-159.66-29.4-209.35l0,0
		c-65.93-49.68-159.67-36.52-209.35,29.4l-25.46,33.77c-7.3,9.69-5.37,23.46,4.32,30.76L1227.63,888.23z"/>
	<path class="st5" d="M1251.72,882.56l-228.56-172.26c-8.39-6.32-10.07-18.25-3.75-26.65l0,0c6.32-8.4,18.26-10.08,26.65-3.75
		l228.57,172.25c8.39,6.32,10.07,18.26,3.74,26.65l-0.01,0.01C1272.04,887.21,1260.11,888.88,1251.72,882.56z"/>
	
		<rect x="1110.08" y="262.2" transform="matrix(0.6019 -0.7986 0.7986 0.6019 212.5517 1302.2568)" class="st6" width="604.57" height="351.5"/>
	<path class="st5" d="M1757.47,75.73c0,0,8.99-35.93-25.46-61.9c-34.46-25.96-66.51-7.42-66.51-7.42l-211.56,84.35l140.35,105.79
		l140.37,105.78L1757.47,75.73z"/>
	<path class="st5" d="M1403.33,808.84c-7.12,9.44-20.54,11.33-29.98,4.21l-310.33-233.88c-9.44-7.11-11.32-20.55-4.2-29.98l0,0
		c7.1-9.44,20.54-11.33,29.98-4.22l310.33,233.88C1408.55,785.97,1410.45,799.4,1403.33,808.84L1403.33,808.84z"/>
	<path class="st5" d="M1561.36,445.81c-41.12,54.57-118.68,65.47-173.25,24.34c-54.59-41.14-65.46-118.69-24.35-173.26
		c41.14-54.56,118.68-65.47,173.27-24.34C1591.6,313.68,1602.49,391.25,1561.36,445.81z"/>
	
		<rect x="1264.77" y="432.79" transform="matrix(0.6019 -0.7986 0.7986 0.6019 25.136 1267.5016)" class="st5" width="38.07" height="351.5"/>
	<g>
		<path class="st4" d="M1294.28,302.63l-217.51,23.75c0,0-43.6,2.52-75.28,44.55L870.82,544.32l190.93-52.73
			c0,0,36.43-9.79,75.37,19.57L1294.28,302.63z"/>
		<path class="st5" d="M881.84,593.58L881.84,593.58c-16.97-12.79-20.35-36.9-7.57-53.86l131.32-174.26c0,0,25.2-33.59,78.1-40.38
			L881.84,593.58z"/>
		<g>
			<path class="st5" d="M1192.47,313.74l-134.91,179l4.18-1.16c0,0,6.72-1.62,17.13-1.43l134.68-178.71L1192.47,313.74z"/>
		</g>
	</g>
	<g>
		<path class="st4" d="M1574.98,514.18l37.1,215.64c0,0,9.59,42.61-22.08,84.65l-130.67,173.38l-1.92-198.08
			c0,0-0.63-37.71-39.59-67.06L1574.98,514.18z"/>
		<path class="st5" d="M1408.92,990.82L1408.92,990.82c16.97,12.79,41.08,9.4,53.87-7.56l131.32-174.25c0,0,25.35-33.48,17.3-86.21
			L1408.92,990.82z"/>
		<g>
			<path class="st5" d="M1588.63,593.52l-134.75,178.81c3.23,10.27,3.54,17.44,3.54,17.44l0.03,3.51l134.78-178.83L1588.63,593.52z"
				/>
		</g>
	</g>
	<path class="st7" d="M1547.45,419.48c-32.67,56.94-110.28,66.74-156.1,18.63c-26.7-28.03-34.2-70.81-18.18-106.06
		c27.81-61.17,103.74-76.38,152.56-35.03C1560.94,326.85,1570.41,379.46,1547.45,419.48z"/>
	<path class="st8" d="M1478.79,296.62c2.33,0.5,4.64,1.12,6.92,1.85"/>
	<path class="st8" d="M1416.73,310.13c14.93-11.19,33.32-16.37,51.51-15.03"/>
</g>
</svg>
